<svg xmlns="http://www.w3.org/2000/svg" width="1700" height="1020" style="background:#0a0e1f;font-family:'Courier New',monospace;">
<g opacity="0.07">
<line x1="0" y1="0" x2="0" y2="1020" stroke="#fff" stroke-width="0.5"/>
<line x1="60" y1="0" x2="60" y2="1020" stroke="#fff" stroke-width="0.5"/>
<line x1="120" y1="0" x2="120" y2="1020" stroke="#fff" stroke-width="0.5"/>
<line x1="180" y1="0" x2="180" y2="1020" stroke="#fff" stroke-width="0.5"/>
<line x1="240" y1="0" x2="240" y2="1020" stroke="#fff" stroke-width="0.5"/>
<line x1="300" y1="0" x2="300" y2="1020" stroke="#fff" stroke-width="0.5"/>
<line x1="360" y1="0" x2="360" y2="1020" stroke="#fff" stroke-width="0.5"/>
<line x1="420" y1="0" x2="420" y2="1020" stroke="#fff" stroke-width="0.5"/>
<line x1="480" y1="0" x2="480" y2="1020" stroke="#fff" stroke-width="0.5"/>
<line x1="540" y1="0" x2="540" y2="1020" stroke="#fff" stroke-width="0.5"/>
<line x1="600" y1="0" x2="600" y2="1020" stroke="#fff" stroke-width="0.5"/>
<line x1="660" y1="0" x2="660" y2="1020" stroke="#fff" stroke-width="0.5"/>
<line x1="720" y1="0" x2="720" y2="1020" stroke="#fff" stroke-width="0.5"/>
<line x1="780" y1="0" x2="780" y2="1020" stroke="#fff" stroke-width="0.5"/>
<line x1="840" y1="0" x2="840" y2="1020" stroke="#fff" stroke-width="0.5"/>
<line x1="900" y1="0" x2="900" y2="1020" stroke="#fff" stroke-width="0.5"/>
<line x1="960" y1="0" x2="960" y2="1020" stroke="#fff" stroke-width="0.5"/>
<line x1="1020" y1="0" x2="1020" y2="1020" stroke="#fff" stroke-width="0.5"/>
<line x1="1080" y1="0" x2="1080" y2="1020" stroke="#fff" stroke-width="0.5"/>
<line x1="1140" y1="0" x2="1140" y2="1020" stroke="#fff" stroke-width="0.5"/>
<line x1="1200" y1="0" x2="1200" y2="1020" stroke="#fff" stroke-width="0.5"/>
<line x1="1260" y1="0" x2="1260" y2="1020" stroke="#fff" stroke-width="0.5"/>
<line x1="1320" y1="0" x2="1320" y2="1020" stroke="#fff" stroke-width="0.5"/>
<line x1="1380" y1="0" x2="1380" y2="1020" stroke="#fff" stroke-width="0.5"/>
<line x1="1440" y1="0" x2="1440" y2="1020" stroke="#fff" stroke-width="0.5"/>
<line x1="1500" y1="0" x2="1500" y2="1020" stroke="#fff" stroke-width="0.5"/>
<line x1="1560" y1="0" x2="1560" y2="1020" stroke="#fff" stroke-width="0.5"/>
<line x1="1620" y1="0" x2="1620" y2="1020" stroke="#fff" stroke-width="0.5"/>
<line x1="1680" y1="0" x2="1680" y2="1020" stroke="#fff" stroke-width="0.5"/>
<line x1="0" y1="0" x2="1700" y2="0" stroke="#fff" stroke-width="0.5"/>
<line x1="0" y1="60" x2="1700" y2="60" stroke="#fff" stroke-width="0.5"/>
<line x1="0" y1="120" x2="1700" y2="120" stroke="#fff" stroke-width="0.5"/>
<line x1="0" y1="180" x2="1700" y2="180" stroke="#fff" stroke-width="0.5"/>
<line x1="0" y1="240" x2="1700" y2="240" stroke="#fff" stroke-width="0.5"/>
<line x1="0" y1="300" x2="1700" y2="300" stroke="#fff" stroke-width="0.5"/>
<line x1="0" y1="360" x2="1700" y2="360" stroke="#fff" stroke-width="0.5"/>
<line x1="0" y1="420" x2="1700" y2="420" stroke="#fff" stroke-width="0.5"/>
<line x1="0" y1="480" x2="1700" y2="480" stroke="#fff" stroke-width="0.5"/>
<line x1="0" y1="540" x2="1700" y2="540" stroke="#fff" stroke-width="0.5"/>
<line x1="0" y1="600" x2="1700" y2="600" stroke="#fff" stroke-width="0.5"/>
<line x1="0" y1="660" x2="1700" y2="660" stroke="#fff" stroke-width="0.5"/>
<line x1="0" y1="720" x2="1700" y2="720" stroke="#fff" stroke-width="0.5"/>
<line x1="0" y1="780" x2="1700" y2="780" stroke="#fff" stroke-width="0.5"/>
<line x1="0" y1="840" x2="1700" y2="840" stroke="#fff" stroke-width="0.5"/>
<line x1="0" y1="900" x2="1700" y2="900" stroke="#fff" stroke-width="0.5"/>
<line x1="0" y1="960" x2="1700" y2="960" stroke="#fff" stroke-width="0.5"/>
</g>
<text x="30" y="595" font-size="22" font-weight="bold" fill="#e2e8f0" letter-spacing="4" opacity="0.9">RETRO SPACE SHOOTER — CLASS DIAGRAM</text>
<g id="arrows">
<line x1="158.7" y1="360.0" x2="753.4" y2="77.3" stroke="#a78bfa" stroke-width="1.6" stroke-dasharray="2,3" opacity="0.75"/>
<polygon points="753.4,77.3 748.4,83.5 745.4,77.2" fill="#a78bfa" />
<text x="460.3" y="227.7" text-anchor="middle" font-size="9" fill="#a78bfa" opacity="0.85">implements</text>
<line x1="1006.4" y1="290.0" x2="839.0" y2="78.4" stroke="#a78bfa" stroke-width="1.6" stroke-dasharray="2,3" opacity="0.75"/>
<polygon points="839.0,78.4 846.2,81.8 840.8,86.2" fill="#a78bfa" />
<text x="930.6" y="178.0" text-anchor="middle" font-size="9" fill="#a78bfa" opacity="0.85">implements</text>
<line x1="1285.5" y1="290.0" x2="872.1" y2="77.4" stroke="#a78bfa" stroke-width="1.6" stroke-dasharray="2,3" opacity="0.75"/>
<polygon points="872.1,77.4 880.1,77.6 876.9,83.8" fill="#a78bfa" />
<text x="1083.4" y="174.8" text-anchor="middle" font-size="9" fill="#a78bfa" opacity="0.85">implements</text>
<line x1="338.0" y1="136.0" x2="353.0" y2="136.0" stroke="#34d399" stroke-width="1.6"  opacity="0.75"/>
<polygon points="353.0,136.0 345.8,139.5 345.8,132.5" fill="#34d399" />
<text x="345.5" y="146.0" text-anchor="middle" font-size="9" fill="#34d399" opacity="0.85">creates</text>
<line x1="338.0" y1="136.0" x2="507.0" y2="136.0" stroke="#34d399" stroke-width="1.6"  opacity="0.75"/>
<polygon points="507.0,136.0 499.8,139.5 499.8,132.5" fill="#34d399" />
<text x="422.5" y="146.0" text-anchor="middle" font-size="9" fill="#34d399" opacity="0.85">creates</text>
<line x1="338.0" y1="136.0" x2="661.0" y2="136.0" stroke="#34d399" stroke-width="1.6"  opacity="0.75"/>
<polygon points="661.0,136.0 653.8,139.5 653.8,132.5" fill="#34d399" />
<text x="499.5" y="146.0" text-anchor="middle" font-size="9" fill="#34d399" opacity="0.85">creates</text>
<line x1="338.0" y1="136.0" x2="815.0" y2="136.0" stroke="#34d399" stroke-width="1.6"  opacity="0.75"/>
<polygon points="815.0,136.0 807.8,139.5 807.8,132.5" fill="#34d399" />
<text x="576.5" y="146.0" text-anchor="middle" font-size="9" fill="#34d399" opacity="0.85">creates</text>
<line x1="338.0" y1="136.0" x2="959.0" y2="136.0" stroke="#34d399" stroke-width="1.6"  opacity="0.75"/>
<polygon points="959.0,136.0 951.8,139.5 951.8,132.5" fill="#34d399" />
<text x="648.5" y="146.0" text-anchor="middle" font-size="9" fill="#34d399" opacity="0.85">creates</text>
<line x1="338.0" y1="136.0" x2="1123.0" y2="136.0" stroke="#34d399" stroke-width="1.6"  opacity="0.75"/>
<polygon points="1123.0,136.0 1115.8,139.5 1115.8,132.5" fill="#34d399" />
<text x="730.5" y="146.0" text-anchor="middle" font-size="9" fill="#34d399" opacity="0.85">creates</text>
<line x1="1171.6" y1="162.0" x2="1053.5" y2="287.8" stroke="#34d399" stroke-width="1.6"  opacity="0.75"/>
<polygon points="1053.5,287.8 1055.9,280.2 1060.9,284.9" fill="#34d399" />
<text x="1105.2" y="218.1" text-anchor="middle" font-size="9" fill="#34d399" opacity="0.85">spawns</text>
<line x1="1216.2" y1="162.0" x2="1313.9" y2="287.6" stroke="#34d399" stroke-width="1.6"  opacity="0.75"/>
<polygon points="1313.9,287.6 1306.8,284.1 1312.3,279.8" fill="#34d399" />
<text x="1257.2" y="231.0" text-anchor="middle" font-size="9" fill="#34d399" opacity="0.85">spawns</text>
<line x1="1266.0" y1="136.0" x2="1427.0" y2="136.0" stroke="#60a5fa" stroke-width="1.6" stroke-dasharray="6,3" opacity="0.75"/>
<polygon points="1427.0,136.0 1419.8,139.5 1419.8,132.5" fill="#60a5fa" />
<text x="1346.5" y="146.0" text-anchor="middle" font-size="9" fill="#60a5fa" opacity="0.85">reads</text>
<line x1="975.6" y1="162.0" x2="676.2" y2="288.8" stroke="#34d399" stroke-width="1.6"  opacity="0.75"/>
<polygon points="676.2,288.8 681.4,282.8 684.1,289.2" fill="#34d399" />
<text x="822.0" y="216.2" text-anchor="middle" font-size="9" fill="#34d399" opacity="0.85">spawns</text>
<line x1="510.0" y1="117.0" x2="327.9" y2="67.7" stroke="#f59e0b" stroke-width="1.6" stroke-dasharray="6,3" opacity="0.75"/>
<polygon points="327.9,67.7 335.8,66.3 333.9,73.0" fill="#f59e0b" />
<text x="421.6" y="82.7" text-anchor="middle" font-size="9" fill="#f59e0b" opacity="0.85">fires</text>
<line x1="115.6" y1="360.0" x2="241.3" y2="78.7" stroke="#f59e0b" stroke-width="1.6" stroke-dasharray="6,3" opacity="0.75"/>
<polygon points="241.3,78.7 241.5,86.7 235.2,83.9" fill="#f59e0b" />
<text x="187.6" y="223.4" text-anchor="middle" font-size="9" fill="#f59e0b" opacity="0.85">fires</text>
<line x1="375.5" y1="110.0" x2="312.1" y2="77.4" stroke="#f59e0b" stroke-width="1.6" stroke-dasharray="6,3" opacity="0.75"/>
<polygon points="312.1,77.4 320.1,77.6 316.9,83.8" fill="#f59e0b" />
<text x="348.4" y="84.8" text-anchor="middle" font-size="9" fill="#f59e0b" opacity="0.85">fires</text>
<line x1="107.7" y1="490.0" x2="244.7" y2="78.8" stroke="#f59e0b" stroke-width="1.6" stroke-dasharray="6,3" opacity="0.75"/>
<polygon points="244.7,78.8 245.7,86.8 239.1,84.6" fill="#f59e0b" />
<text x="185.7" y="287.6" text-anchor="middle" font-size="9" fill="#f59e0b" opacity="0.85">listens</text>
<line x1="356.0" y1="117.1" x2="172.9" y2="67.7" stroke="#60a5fa" stroke-width="1.6"  opacity="0.75"/>
<polygon points="172.9,67.7 180.8,66.2 178.9,72.9" fill="#60a5fa" />
<text x="267.1" y="82.7" text-anchor="middle" font-size="9" fill="#60a5fa" opacity="0.85">writes</text>
<line x1="510.0" y1="123.2" x2="173.0" y2="61.4" stroke="#60a5fa" stroke-width="1.6"  opacity="0.75"/>
<polygon points="173.0,61.4 180.7,59.3 179.4,66.1" fill="#60a5fa" />
<text x="343.3" y="82.4" text-anchor="middle" font-size="9" fill="#60a5fa" opacity="0.85">writes</text>
<line x1="249.2" y1="490.0" x2="110.4" y2="78.8" stroke="#60a5fa" stroke-width="1.6" stroke-dasharray="6,3" opacity="0.75"/>
<polygon points="110.4,78.8 116.0,84.6 109.4,86.8" fill="#60a5fa" />
<text x="189.3" y="281.2" text-anchor="middle" font-size="9" fill="#60a5fa" opacity="0.85">reads</text>
<line x1="400.0" y1="328.6" x2="180.9" y2="371.1" stroke="#f87171" stroke-width="1.6" stroke-dasharray="6,3" opacity="0.75"/>
<polygon points="180.9,371.1 187.4,366.3 188.7,373.1" fill="#f87171" />
<text x="288.6" y="340.0" text-anchor="middle" font-size="9" fill="#f87171" opacity="0.85">damages</text>
<line x1="530.0" y1="316.0" x2="959.0" y2="316.0" stroke="#f87171" stroke-width="1.6" stroke-dasharray="6,3" opacity="0.75"/>
<polygon points="959.0,316.0 951.8,319.5 951.8,312.5" fill="#f87171" />
<text x="744.5" y="326.0" text-anchor="middle" font-size="9" fill="#f87171" opacity="0.85">damages</text>
<line x1="530.0" y1="316.0" x2="1257.0" y2="316.0" stroke="#f87171" stroke-width="1.6" stroke-dasharray="6,3" opacity="0.75"/>
<polygon points="1257.0,316.0 1249.8,319.5 1249.8,312.5" fill="#f87171" />
<text x="893.5" y="326.0" text-anchor="middle" font-size="9" fill="#f87171" opacity="0.85">damages</text>
<line x1="547.0" y1="325.0" x2="181.0" y2="375.4" stroke="#34d399" stroke-width="1.6" stroke-dasharray="6,3" opacity="0.75"/>
<polygon points="181.0,375.4 187.6,371.0 188.6,377.9" fill="#34d399" />
<text x="362.6" y="340.3" text-anchor="middle" font-size="9" fill="#34d399" opacity="0.85">heals</text>
<line x1="547.0" y1="329.1" x2="337.9" y2="371.3" stroke="#34d399" stroke-width="1.6" stroke-dasharray="6,3" opacity="0.75"/>
<polygon points="337.9,371.3 344.3,366.5 345.7,373.3" fill="#34d399" />
<text x="440.5" y="340.4" text-anchor="middle" font-size="9" fill="#34d399" opacity="0.85">upgrades</text>
<line x1="677.0" y1="309.1" x2="1562.0" y2="215.7" stroke="#60a5fa" stroke-width="1.6"  opacity="0.75"/>
<polygon points="1562.0,215.7 1555.2,219.9 1554.5,212.9" fill="#60a5fa" />
<text x="1120.6" y="272.3" text-anchor="middle" font-size="9" fill="#60a5fa" opacity="0.85">uses</text>
<line x1="1490.0" y1="162.0" x2="1490.0" y2="180.0" stroke="#60a5fa" stroke-width="1.6"  opacity="0.75"/>
<polygon points="1490.0,180.0 1486.5,172.8 1493.5,172.8" fill="#60a5fa" />
<text x="1480.0" y="171.0" text-anchor="middle" font-size="9" fill="#60a5fa" opacity="0.85">contains</text>
<line x1="1467.8" y1="162.0" x2="1360.2" y2="287.7" stroke="#60a5fa" stroke-width="1.6"  opacity="0.75"/>
<polygon points="1360.2,287.7 1362.2,280.0 1367.5,284.5" fill="#60a5fa" />
<text x="1406.4" y="218.4" text-anchor="middle" font-size="9" fill="#60a5fa" opacity="0.85">refs</text>
<line x1="1490.0" y1="235.0" x2="1490.0" y2="253.0" stroke="#60a5fa" stroke-width="1.6"  opacity="0.75"/>
<polygon points="1490.0,253.0 1486.5,245.8 1493.5,245.8" fill="#60a5fa" />
<text x="1480.0" y="244.0" text-anchor="middle" font-size="9" fill="#60a5fa" opacity="0.85">refs</text>
<line x1="1092.0" y1="311.2" x2="1427.0" y2="286.6" stroke="#60a5fa" stroke-width="1.6"  opacity="0.75"/>
<polygon points="1427.0,286.6 1420.1,290.6 1419.6,283.7" fill="#60a5fa" />
<text x="1260.2" y="308.9" text-anchor="middle" font-size="9" fill="#60a5fa" opacity="0.85">uses</text>
<line x1="1377.7" y1="290.0" x2="1580.7" y2="163.6" stroke="#60a5fa" stroke-width="1.6"  opacity="0.75"/>
<polygon points="1580.7,163.6 1576.4,170.3 1572.8,164.4" fill="#60a5fa" />
<text x="1484.5" y="235.3" text-anchor="middle" font-size="9" fill="#60a5fa" opacity="0.85">uses</text>
<line x1="332.0" y1="516.0" x2="669.0" y2="516.0" stroke="#60a5fa" stroke-width="1.6" stroke-dasharray="6,3" opacity="0.75"/>
<polygon points="669.0,516.0 661.8,519.5 661.8,512.5" fill="#60a5fa" />
<text x="500.5" y="526.0" text-anchor="middle" font-size="9" fill="#60a5fa" opacity="0.85">uses</text>
<line x1="655.0" y1="516.0" x2="669.0" y2="516.0" stroke="#60a5fa" stroke-width="1.6" stroke-dasharray="6,3" opacity="0.75"/>
<polygon points="669.0,516.0 661.8,519.5 661.8,512.5" fill="#60a5fa" />
<text x="662.0" y="526.0" text-anchor="middle" font-size="9" fill="#60a5fa" opacity="0.85">uses</text>
<line x1="392.5" y1="162.0" x2="139.9" y2="358.2" stroke="#34d399" stroke-width="1.6" stroke-dasharray="6,3" opacity="0.75"/>
<polygon points="139.9,358.2 143.4,351.0 147.7,356.5" fill="#34d399" />
<text x="260.1" y="252.2" text-anchor="middle" font-size="9" fill="#34d399" opacity="0.85">respawns</text>
<line x1="510.0" y1="117.0" x2="327.9" y2="67.7" stroke="#f59e0b" stroke-width="1.6" stroke-dasharray="6,3" opacity="0.75"/>
<polygon points="327.9,67.7 335.8,66.3 333.9,73.0" fill="#f59e0b" />
<text x="421.6" y="82.7" text-anchor="middle" font-size="9" fill="#f59e0b" opacity="0.85">fires</text>
<line x1="1108.0" y1="316.0" x2="533.0" y2="316.0" stroke="#f87171" stroke-width="1.6"  opacity="0.75"/>
<polygon points="533.0,316.0 540.2,312.5 540.2,319.5" fill="#f87171" />
<text x="820.5" y="306.0" text-anchor="middle" font-size="9" fill="#f87171" opacity="0.85">fires</text>
<line x1="1260.0" y1="316.0" x2="533.0" y2="316.0" stroke="#f87171" stroke-width="1.6"  opacity="0.75"/>
<polygon points="533.0,316.0 540.2,312.5 540.2,319.5" fill="#f87171" />
<text x="896.5" y="306.0" text-anchor="middle" font-size="9" fill="#f87171" opacity="0.85">fires</text>
<line x1="335.0" y1="361.5" x2="397.2" y2="339.7" stroke="#f87171" stroke-width="1.6"  opacity="0.75"/>
<polygon points="397.2,339.7 391.5,345.4 389.2,338.8" fill="#f87171" />
<text x="369.4" y="360.1" text-anchor="middle" font-size="9" fill="#f87171" opacity="0.85">fires</text>
</g>
<g id="boxes">
<rect x="743" y="23" width="150" height="56" rx="6" fill="#000" opacity="0.35"/>
<rect x="740" y="20" width="150" height="56" rx="6" fill="#7c3aed" stroke="#ae6cff" stroke-width="1.4"/>
<text x="815.0" y="36.0" text-anchor="middle" font-size="9" fill="#94a3b8" font-style="italic">«interface»</text>
<text x="815.0" y="54.0" text-anchor="middle" font-size="13" font-weight="bold" fill="#e2e8f0">IDamageable</text>
<rect x="33" y="23" width="140" height="56" rx="6" fill="#000" opacity="0.35"/>
<rect x="30" y="20" width="140" height="56" rx="6" fill="#b45309" stroke="#e6853b" stroke-width="1.4"/>
<text x="100.0" y="36.0" text-anchor="middle" font-size="9" fill="#94a3b8" font-style="italic">«static»</text>
<text x="100.0" y="54.0" text-anchor="middle" font-size="13" font-weight="bold" fill="#e2e8f0">RunSession</text>
<rect x="188" y="23" width="140" height="56" rx="6" fill="#000" opacity="0.35"/>
<rect x="185" y="20" width="140" height="56" rx="6" fill="#b45309" stroke="#e6853b" stroke-width="1.4"/>
<text x="255.0" y="36.0" text-anchor="middle" font-size="9" fill="#94a3b8" font-style="italic">«static»</text>
<text x="255.0" y="54.0" text-anchor="middle" font-size="13" font-weight="bold" fill="#e2e8f0">GameEvents</text>
<rect x="33" y="113" width="135" height="52" rx="6" fill="#000" opacity="0.35"/>
<rect x="30" y="110" width="135" height="52" rx="6" fill="#0f4c81" stroke="#417eb3" stroke-width="1.4"/>
<text x="97.5" y="126.0" text-anchor="middle" font-size="9" fill="#94a3b8" font-style="italic">MB</text>
<text x="97.5" y="144.0" text-anchor="middle" font-size="13" font-weight="bold" fill="#e2e8f0">BootLoader</text>
<rect x="186" y="113" width="155" height="52" rx="6" fill="#000" opacity="0.35"/>
<rect x="183" y="110" width="155" height="52" rx="6" fill="#0f4c81" stroke="#417eb3" stroke-width="1.4"/>
<text x="260.5" y="126.0" text-anchor="middle" font-size="9" fill="#94a3b8" font-style="italic">MB</text>
<text x="260.5" y="144.0" text-anchor="middle" font-size="13" font-weight="bold" fill="#e2e8f0">Milestone1Game</text>
<rect x="33" y="186" width="155" height="52" rx="6" fill="#000" opacity="0.35"/>
<rect x="30" y="183" width="155" height="52" rx="6" fill="#0f4c81" stroke="#417eb3" stroke-width="1.4"/>
<text x="107.5" y="199.0" text-anchor="middle" font-size="9" fill="#94a3b8" font-style="italic">MB</text>
<text x="107.5" y="217.0" text-anchor="middle" font-size="13" font-weight="bold" fill="#e2e8f0">BackgroundScroller</text>
<rect x="359" y="23" width="140" height="56" rx="6" fill="#000" opacity="0.35"/>
<rect x="356" y="20" width="140" height="56" rx="6" fill="#0d7a5a" stroke="#3fac8c" stroke-width="1.4"/>
<text x="426.0" y="36.0" text-anchor="middle" font-size="9" fill="#94a3b8" font-style="italic">«singleton»</text>
<text x="426.0" y="54.0" text-anchor="middle" font-size="13" font-weight="bold" fill="#e2e8f0">ScreenShake</text>
<rect x="359" y="113" width="140" height="52" rx="6" fill="#000" opacity="0.35"/>
<rect x="356" y="110" width="140" height="52" rx="6" fill="#0d7a5a" stroke="#3fac8c" stroke-width="1.4"/>
<text x="426.0" y="126.0" text-anchor="middle" font-size="9" fill="#94a3b8" font-style="italic">«singleton»</text>
<text x="426.0" y="144.0" text-anchor="middle" font-size="13" font-weight="bold" fill="#e2e8f0">GameManager</text>
<rect x="513" y="113" width="140" height="52" rx="6" fill="#000" opacity="0.35"/>
<rect x="510" y="110" width="140" height="52" rx="6" fill="#0d7a5a" stroke="#3fac8c" stroke-width="1.4"/>
<text x="580.0" y="126.0" text-anchor="middle" font-size="9" fill="#94a3b8" font-style="italic">«singleton»</text>
<text x="580.0" y="144.0" text-anchor="middle" font-size="13" font-weight="bold" fill="#e2e8f0">ScoreManager</text>
<rect x="667" y="113" width="140" height="52" rx="6" fill="#000" opacity="0.35"/>
<rect x="664" y="110" width="140" height="52" rx="6" fill="#0d7a5a" stroke="#3fac8c" stroke-width="1.4"/>
<text x="734.0" y="126.0" text-anchor="middle" font-size="9" fill="#94a3b8" font-style="italic">«singleton»</text>
<text x="734.0" y="144.0" text-anchor="middle" font-size="13" font-weight="bold" fill="#e2e8f0">AudioManager</text>
<rect x="821" y="113" width="130" height="52" rx="6" fill="#000" opacity="0.35"/>
<rect x="818" y="110" width="130" height="52" rx="6" fill="#0d7a5a" stroke="#3fac8c" stroke-width="1.4"/>
<text x="883.0" y="126.0" text-anchor="middle" font-size="9" fill="#94a3b8" font-style="italic">«singleton»</text>
<text x="883.0" y="144.0" text-anchor="middle" font-size="13" font-weight="bold" fill="#e2e8f0">VFXManager</text>
<rect x="965" y="113" width="150" height="52" rx="6" fill="#000" opacity="0.35"/>
<rect x="962" y="110" width="150" height="52" rx="6" fill="#0d7a5a" stroke="#3fac8c" stroke-width="1.4"/>
<text x="1037.0" y="126.0" text-anchor="middle" font-size="9" fill="#94a3b8" font-style="italic">«singleton»</text>
<text x="1037.0" y="144.0" text-anchor="middle" font-size="13" font-weight="bold" fill="#e2e8f0">PowerUpManager</text>
<rect x="1129" y="113" width="140" height="52" rx="6" fill="#000" opacity="0.35"/>
<rect x="1126" y="110" width="140" height="52" rx="6" fill="#0f4c81" stroke="#417eb3" stroke-width="1.4"/>
<text x="1196.0" y="126.0" text-anchor="middle" font-size="9" fill="#94a3b8" font-style="italic">MB</text>
<text x="1196.0" y="144.0" text-anchor="middle" font-size="13" font-weight="bold" fill="#e2e8f0">WaveManager</text>
<rect x="33" y="293" width="148" height="52" rx="6" fill="#000" opacity="0.35"/>
<rect x="30" y="290" width="148" height="52" rx="6" fill="#0f4c81" stroke="#417eb3" stroke-width="1.4"/>
<text x="104.0" y="306.0" text-anchor="middle" font-size="9" fill="#94a3b8" font-style="italic">MB</text>
<text x="104.0" y="324.0" text-anchor="middle" font-size="13" font-weight="bold" fill="#e2e8f0">PlayerController</text>
<rect x="33" y="363" width="148" height="52" rx="6" fill="#000" opacity="0.35"/>
<rect x="30" y="360" width="148" height="52" rx="6" fill="#0f4c81" stroke="#417eb3" stroke-width="1.4"/>
<text x="104.0" y="376.0" text-anchor="middle" font-size="9" fill="#94a3b8" font-style="italic">«IDamageable»</text>
<text x="104.0" y="394.0" text-anchor="middle" font-size="13" font-weight="bold" fill="#e2e8f0">PlayerHealth</text>
<rect x="198" y="363" width="140" height="52" rx="6" fill="#000" opacity="0.35"/>
<rect x="195" y="360" width="140" height="52" rx="6" fill="#0f4c81" stroke="#417eb3" stroke-width="1.4"/>
<text x="265.0" y="376.0" text-anchor="middle" font-size="9" fill="#94a3b8" font-style="italic">MB</text>
<text x="265.0" y="394.0" text-anchor="middle" font-size="13" font-weight="bold" fill="#e2e8f0">PlayerWeapon</text>
<rect x="965" y="293" width="130" height="52" rx="6" fill="#000" opacity="0.35"/>
<rect x="962" y="290" width="130" height="52" rx="6" fill="#0f4c81" stroke="#417eb3" stroke-width="1.4"/>
<text x="1027.0" y="306.0" text-anchor="middle" font-size="9" fill="#94a3b8" font-style="italic">«IDamageable»</text>
<text x="1027.0" y="324.0" text-anchor="middle" font-size="13" font-weight="bold" fill="#e2e8f0">Enemy</text>
<rect x="1111" y="293" width="135" height="52" rx="6" fill="#000" opacity="0.35"/>
<rect x="1108" y="290" width="135" height="52" rx="6" fill="#0f4c81" stroke="#417eb3" stroke-width="1.4"/>
<text x="1175.5" y="306.0" text-anchor="middle" font-size="9" fill="#94a3b8" font-style="italic">MB</text>
<text x="1175.5" y="324.0" text-anchor="middle" font-size="13" font-weight="bold" fill="#e2e8f0">EnemyShooter</text>
<rect x="1263" y="293" width="152" height="52" rx="6" fill="#000" opacity="0.35"/>
<rect x="1260" y="290" width="152" height="52" rx="6" fill="#0f4c81" stroke="#417eb3" stroke-width="1.4"/>
<text x="1336.0" y="306.0" text-anchor="middle" font-size="9" fill="#94a3b8" font-style="italic">«IDamageable»</text>
<text x="1336.0" y="324.0" text-anchor="middle" font-size="13" font-weight="bold" fill="#e2e8f0">BossController</text>
<rect x="403" y="293" width="130" height="52" rx="6" fill="#000" opacity="0.35"/>
<rect x="400" y="290" width="130" height="52" rx="6" fill="#0f4c81" stroke="#417eb3" stroke-width="1.4"/>
<text x="465.0" y="306.0" text-anchor="middle" font-size="9" fill="#94a3b8" font-style="italic">MB</text>
<text x="465.0" y="324.0" text-anchor="middle" font-size="13" font-weight="bold" fill="#e2e8f0">Projectile</text>
<rect x="550" y="293" width="130" height="52" rx="6" fill="#000" opacity="0.35"/>
<rect x="547" y="290" width="130" height="52" rx="6" fill="#0f4c81" stroke="#417eb3" stroke-width="1.4"/>
<text x="612.0" y="306.0" text-anchor="middle" font-size="9" fill="#94a3b8" font-style="italic">MB</text>
<text x="612.0" y="324.0" text-anchor="middle" font-size="13" font-weight="bold" fill="#e2e8f0">PowerUp</text>
<rect x="1433" y="113" width="120" height="52" rx="6" fill="#000" opacity="0.35"/>
<rect x="1430" y="110" width="120" height="52" rx="6" fill="#7c2d12" stroke="#ae5f44" stroke-width="1.4"/>
<text x="1490.0" y="126.0" text-anchor="middle" font-size="9" fill="#94a3b8" font-style="italic">«SO»</text>
<text x="1490.0" y="144.0" text-anchor="middle" font-size="13" font-weight="bold" fill="#e2e8f0">LevelData</text>
<rect x="1433" y="186" width="120" height="52" rx="6" fill="#000" opacity="0.35"/>
<rect x="1430" y="183" width="120" height="52" rx="6" fill="#7c2d12" stroke="#ae5f44" stroke-width="1.4"/>
<text x="1490.0" y="199.0" text-anchor="middle" font-size="9" fill="#94a3b8" font-style="italic">«SO»</text>
<text x="1490.0" y="217.0" text-anchor="middle" font-size="13" font-weight="bold" fill="#e2e8f0">WaveData</text>
<rect x="1433" y="259" width="120" height="52" rx="6" fill="#000" opacity="0.35"/>
<rect x="1430" y="256" width="120" height="52" rx="6" fill="#7c2d12" stroke="#ae5f44" stroke-width="1.4"/>
<text x="1490.0" y="272.0" text-anchor="middle" font-size="9" fill="#94a3b8" font-style="italic">«SO»</text>
<text x="1490.0" y="290.0" text-anchor="middle" font-size="13" font-weight="bold" fill="#e2e8f0">EnemyData</text>
<rect x="1568" y="113" width="120" height="52" rx="6" fill="#000" opacity="0.35"/>
<rect x="1565" y="110" width="120" height="52" rx="6" fill="#7c2d12" stroke="#ae5f44" stroke-width="1.4"/>
<text x="1625.0" y="126.0" text-anchor="middle" font-size="9" fill="#94a3b8" font-style="italic">«SO»</text>
<text x="1625.0" y="144.0" text-anchor="middle" font-size="13" font-weight="bold" fill="#e2e8f0">BossData</text>
<rect x="1568" y="186" width="120" height="52" rx="6" fill="#000" opacity="0.35"/>
<rect x="1565" y="183" width="120" height="52" rx="6" fill="#7c2d12" stroke="#ae5f44" stroke-width="1.4"/>
<text x="1625.0" y="199.0" text-anchor="middle" font-size="9" fill="#94a3b8" font-style="italic">«SO»</text>
<text x="1625.0" y="217.0" text-anchor="middle" font-size="13" font-weight="bold" fill="#e2e8f0">PowerUpData</text>
<rect x="33" y="493" width="138" height="52" rx="6" fill="#000" opacity="0.35"/>
<rect x="30" y="490" width="138" height="52" rx="6" fill="#1e3a5f" stroke="#506c91" stroke-width="1.4"/>
<text x="99.0" y="506.0" text-anchor="middle" font-size="9" fill="#94a3b8" font-style="italic">MB</text>
<text x="99.0" y="524.0" text-anchor="middle" font-size="13" font-weight="bold" fill="#e2e8f0">UIManager</text>
<rect x="187" y="493" width="148" height="52" rx="6" fill="#000" opacity="0.35"/>
<rect x="184" y="490" width="148" height="52" rx="6" fill="#1e3a5f" stroke="#506c91" stroke-width="1.4"/>
<text x="258.0" y="506.0" text-anchor="middle" font-size="9" fill="#94a3b8" font-style="italic">MB</text>
<text x="258.0" y="524.0" text-anchor="middle" font-size="13" font-weight="bold" fill="#e2e8f0">MenuController</text>
<rect x="350" y="493" width="138" height="52" rx="6" fill="#000" opacity="0.35"/>
<rect x="347" y="490" width="138" height="52" rx="6" fill="#1e3a5f" stroke="#506c91" stroke-width="1.4"/>
<text x="416.0" y="506.0" text-anchor="middle" font-size="9" fill="#94a3b8" font-style="italic">MB</text>
<text x="416.0" y="524.0" text-anchor="middle" font-size="13" font-weight="bold" fill="#e2e8f0">MenuAnimator</text>
<rect x="503" y="493" width="155" height="52" rx="6" fill="#000" opacity="0.35"/>
<rect x="500" y="490" width="155" height="52" rx="6" fill="#1e3a5f" stroke="#506c91" stroke-width="1.4"/>
<text x="577.5" y="506.0" text-anchor="middle" font-size="9" fill="#94a3b8" font-style="italic">MB</text>
<text x="577.5" y="524.0" text-anchor="middle" font-size="13" font-weight="bold" fill="#e2e8f0">EndScreenCtrl</text>
<rect x="675" y="493" width="152" height="52" rx="6" fill="#000" opacity="0.35"/>
<rect x="672" y="490" width="152" height="52" rx="6" fill="#b45309" stroke="#e6853b" stroke-width="1.4"/>
<text x="748.0" y="506.0" text-anchor="middle" font-size="9" fill="#94a3b8" font-style="italic">«static»</text>
<text x="748.0" y="524.0" text-anchor="middle" font-size="13" font-weight="bold" fill="#e2e8f0">RuntimeScreenUI</text>
</g>
<rect x="22" y="618" width="760" height="36" rx="4" fill="#111827" stroke="#1e293b" stroke-width="1"/>
<rect x="30" y="630" width="18" height="12" rx="2" fill="#7c3aed" stroke="#ae6cff" stroke-width="1"/>
<text x="52" y="640" font-size="10" fill="#94a3b8">Interface</text>
<rect x="156" y="630" width="18" height="12" rx="2" fill="#b45309" stroke="#e6853b" stroke-width="1"/>
<text x="178" y="640" font-size="10" fill="#94a3b8">Static class</text>
<rect x="282" y="630" width="18" height="12" rx="2" fill="#0d7a5a" stroke="#3fac8c" stroke-width="1"/>
<text x="304" y="640" font-size="10" fill="#94a3b8">Singleton (MB)</text>
<rect x="408" y="630" width="18" height="12" rx="2" fill="#0f4c81" stroke="#417eb3" stroke-width="1"/>
<text x="430" y="640" font-size="10" fill="#94a3b8">MonoBehaviour</text>
<rect x="534" y="630" width="18" height="12" rx="2" fill="#7c2d12" stroke="#ae5f44" stroke-width="1"/>
<text x="556" y="640" font-size="10" fill="#94a3b8">ScriptableObject</text>
<rect x="660" y="630" width="18" height="12" rx="2" fill="#1e3a5f" stroke="#506c91" stroke-width="1"/>
<text x="682" y="640" font-size="10" fill="#94a3b8">UI component</text>
<rect x="22" y="668" width="760" height="36" rx="4" fill="#111827" stroke="#1e293b" stroke-width="1"/>
<line x1="30" y1="686" x2="58" y2="686" stroke="#a78bfa" stroke-width="2" stroke-dasharray="2,2"/>
<polygon points="58.0,686.0 51.7,689.0 51.7,683.0" fill="#a78bfa" />
<text x="62" y="690" font-size="10" fill="#94a3b8">implements</text>
<line x1="180" y1="686" x2="208" y2="686" stroke="#34d399" stroke-width="2" />
<polygon points="208.0,686.0 201.7,689.0 201.7,683.0" fill="#34d399" />
<text x="212" y="690" font-size="10" fill="#94a3b8">creates/spawns</text>
<line x1="330" y1="686" x2="358" y2="686" stroke="#60a5fa" stroke-width="2" stroke-dasharray="4,2"/>
<polygon points="358.0,686.0 351.7,689.0 351.7,683.0" fill="#60a5fa" />
<text x="362" y="690" font-size="10" fill="#94a3b8">uses/reads</text>
<line x1="480" y1="686" x2="508" y2="686" stroke="#f59e0b" stroke-width="2" stroke-dasharray="4,2"/>
<polygon points="508.0,686.0 501.7,689.0 501.7,683.0" fill="#f59e0b" />
<text x="512" y="690" font-size="10" fill="#94a3b8">events</text>
<line x1="630" y1="686" x2="658" y2="686" stroke="#f87171" stroke-width="2" stroke-dasharray="4,2"/>
<polygon points="658.0,686.0 651.7,689.0 651.7,683.0" fill="#f87171" />
<text x="662" y="690" font-size="10" fill="#94a3b8">damages</text>
<rect x="17" y="80" width="330" height="12" rx="2" fill="#1e293b" opacity="0.7"/>
<text x="25" y="89" font-size="9" fill="#64748b" letter-spacing="1.5">BOOTSTRAP & CORE</text>
<rect x="17" y="270" width="340" height="12" rx="2" fill="#1e293b" opacity="0.7"/>
<text x="25" y="279" font-size="9" fill="#64748b" letter-spacing="1.5">PLAYER</text>
<rect x="377" y="265" width="310" height="12" rx="2" fill="#1e293b" opacity="0.7"/>
<text x="385" y="274" font-size="9" fill="#64748b" letter-spacing="1.5">SHARED OBJECTS</text>
<rect x="940" y="265" width="480" height="12" rx="2" fill="#1e293b" opacity="0.7"/>
<text x="948" y="274" font-size="9" fill="#64748b" letter-spacing="1.5">ENEMIES</text>
<rect x="1420" y="85" width="280" height="12" rx="2" fill="#1e293b" opacity="0.7"/>
<text x="1428" y="94" font-size="9" fill="#64748b" letter-spacing="1.5">DATA (ScriptableObjects)</text>
<rect x="17" y="465" width="830" height="12" rx="2" fill="#1e293b" opacity="0.7"/>
<text x="25" y="474" font-size="9" fill="#64748b" letter-spacing="1.5">USER INTERFACE</text>
</svg>